<svg version="1.2" xmlns="http://www.w3.org/2000/svg" viewBox="0 0 272 295" width="272" height="295">
	<title>aletta-logo-small-svg</title>
	<style>
		.s0 { fill: #13acc8;stroke: #1d1d1b;stroke-width: 7.1 } 
		.s1 { fill: #1d1d1b } 
	</style>
	<g id="a">
	</g>
	<g id="b">
		<g id="c">
			<g id="Layer">
				<path id="Layer" class="s0" d="m133.4 286.1c0-49.4-67.8-68.1-67.4-154.6 0-68.1 55.2-123.4 123.4-123.5"/>
				<path id="Layer" class="s1" d="m189.7 187.7q6.9 0 11.1 4.1 4.2 4.1 4.2 10.4c0 4.2-1.4 7.5-4.2 10.2q-4.2 4.1-11.1 4.1c-4.6 0-8.2-1.4-11-4.1q-4.2-4-4.2-10.2 0-6.3 4.2-10.4 4.2-4.1 11-4.1zm11.4-14.9h-22.7l-3.2-95.2h29.1z"/>
			</g>
		</g>
	</g>
</svg>